<?xml version="1.0" encoding="utf-8"?>
<!-- Generator: Adobe Illustrator 16.0.0, SVG Export Plug-In . SVG Version: 6.00 Build 0)  -->
<!DOCTYPE svg PUBLIC "-//W3C//DTD SVG 1.1//EN" "http://www.w3.org/Graphics/SVG/1.1/DTD/svg11.dtd">
<svg version="1.1" xmlns="http://www.w3.org/2000/svg" xmlns:xlink="http://www.w3.org/1999/xlink" x="0px" y="0px" width="40px"
	 height="40px" viewBox="0 0 40 40" enable-background="new 0 0 40 40" xml:space="preserve">
<g id="Layer_2">
</g>
<g id="Layer_1">
	<g>
		<g>
			<defs>
				<path id="SVGID_1_" d="M-4.8-375.5c-0.4,2-1.2,3.8-2.3,5.5l-0.3,0.4l2.5,2.5l-3.7,3.7l-2.5-2.5l-0.4,0.3
					c-1.7,1.1-3.5,1.9-5.5,2.3l-0.5,0.1v3.5h-5.2v-3.5l-0.5-0.1c-2-0.4-3.8-1.2-5.5-2.3l-0.4-0.3l-2.5,2.5l-3.7-3.7l2.5-2.5
					l-0.3-0.4c-1.1-1.7-1.9-3.5-2.3-5.5l-0.1-0.5h-3.5v-5.2h3.5l0.1-0.5c0.4-2,1.2-3.8,2.3-5.5l0.3-0.4l-2.5-2.5l3.7-3.7l2.5,2.5
					l0.4-0.3c1.7-1.1,3.5-1.9,5.5-2.3l0.5-0.1v-3.5h5.2v3.5l0.5,0.1c2,0.4,3.8,1.2,5.5,2.3l0.4,0.3l2.5-2.5l3.7,3.7l-2.5,2.5
					l0.3,0.4c1.1,1.7,1.9,3.5,2.3,5.5l0.1,0.5h3.5v5.2h-3.5L-4.8-375.5z M0.1-374.7v-7.8h-3.7c-0.4-1.8-1.1-3.4-2.1-5l2.6-2.6
					l-5.5-5.5l-2.6,2.6c-1.6-1-3.2-1.7-5-2.1v-3.7H-24v3.7c-1.8,0.4-3.4,1.1-5,2.1l-2.6-2.6l-5.5,5.5l2.6,2.6c-1,1.6-1.7,3.2-2.1,5
					h-3.7v7.8h3.7c0.4,1.8,1.1,3.4,2.1,5l-2.6,2.6l5.5,5.5l2.6-2.6c1.6,1,3.2,1.7,5,2.1v3.7h7.8v-3.7c1.8-0.4,3.4-1.1,5-2.1l2.6,2.6
					l5.5-5.5l-2.6-2.6c1-1.6,1.7-3.2,2.1-5H0.1z"/>
			</defs>
			<clipPath id="SVGID_2_">
				<use xlink:href="#SVGID_1_"  overflow="visible"/>
			</clipPath>
			<g clip-path="url(#SVGID_2_)">
				<defs>
					<rect id="SVGID_3_" x="-1244" y="-1155.6" width="2019.9" height="1436.4"/>
				</defs>
				<clipPath id="SVGID_4_">
					<use xlink:href="#SVGID_3_"  overflow="visible"/>
				</clipPath>
			</g>
		</g>
		<g>
			<defs>
				<path id="SVGID_5_" d="M-20.1-376c-1.4,0-2.6-1.2-2.6-2.6c0-1.4,1.2-2.6,2.6-2.6s2.6,1.2,2.6,2.6C-17.5-377.2-18.7-376-20.1-376
					z M-20.1-382.6c-2.2,0-3.9,1.8-3.9,3.9c0,2.2,1.8,3.9,3.9,3.9c2.2,0,3.9-1.8,3.9-3.9C-16.2-380.8-18-382.6-20.1-382.6z"/>
			</defs>
			<clipPath id="SVGID_6_">
				<use xlink:href="#SVGID_5_"  overflow="visible"/>
			</clipPath>
			<g clip-path="url(#SVGID_6_)">
				<defs>
					<rect id="SVGID_7_" x="-1244" y="-1155.6" width="2019.9" height="1436.4"/>
				</defs>
				<clipPath id="SVGID_8_">
					<use xlink:href="#SVGID_7_"  overflow="visible"/>
				</clipPath>
			</g>
		</g>
	</g>
	<polyline fill="none" stroke="#EAEAEA" stroke-width="2" stroke-linecap="round" stroke-miterlimit="10" points="23.6,26.4 
		17.2,20 23.6,13.6 	"/>
</g>
</svg>
