<?xml version="1.0" encoding="utf-8"?>
<!-- Generator: Adobe Illustrator 16.0.0, SVG Export Plug-In . SVG Version: 6.00 Build 0)  -->
<!DOCTYPE svg PUBLIC "-//W3C//DTD SVG 1.1//EN" "http://www.w3.org/Graphics/SVG/1.1/DTD/svg11.dtd">
<svg version="1.1" xmlns="http://www.w3.org/2000/svg" xmlns:xlink="http://www.w3.org/1999/xlink" x="0px" y="0px" width="113.4px"
	 height="113.4px" viewBox="0 0 113.4 113.4" enable-background="new 0 0 113.4 113.4" xml:space="preserve">
<g id="Layer_2">
</g>
<g id="Layer_1">
	<g>
		<g>
			<defs>
				<path id="SVGID_1_" d="M31.9-480.6c-0.4,2-1.2,3.8-2.3,5.5l-0.3,0.4l2.5,2.5l-3.7,3.7l-2.5-2.5l-0.4,0.3
					c-1.7,1.1-3.5,1.9-5.5,2.3l-0.5,0.1v3.5H14v-3.5l-0.5-0.1c-2-0.4-3.8-1.2-5.5-2.3l-0.4-0.3L5-468.4l-3.7-3.7l2.5-2.5L3.5-475
					c-1.1-1.7-1.9-3.5-2.3-5.5l-0.1-0.5h-3.5v-5.2h3.5l0.1-0.5c0.4-2,1.2-3.8,2.3-5.5l0.3-0.4l-2.5-2.5l3.7-3.7l2.5,2.5l0.4-0.3
					c1.7-1.1,3.5-1.9,5.5-2.3l0.5-0.1v-3.5h5.2v3.5l0.5,0.1c2,0.4,3.8,1.2,5.5,2.3l0.4,0.3l2.5-2.5l3.7,3.7l-2.5,2.5l0.3,0.4
					c1.1,1.7,1.9,3.5,2.3,5.5l0.1,0.5h3.5v5.2H32L31.9-480.6z M36.8-479.8v-7.8h-3.7c-0.4-1.8-1.1-3.4-2.1-5l2.6-2.6l-5.5-5.5
					l-2.6,2.6c-1.6-1-3.2-1.7-5-2.1v-3.7h-7.8v3.7c-1.8,0.4-3.4,1.1-5,2.1L5-500.8l-5.5,5.5l2.6,2.6c-1,1.6-1.7,3.2-2.1,5h-3.7v7.8
					h3.7c0.4,1.8,1.1,3.4,2.1,5l-2.6,2.6l5.5,5.5l2.6-2.6c1.6,1,3.2,1.7,5,2.1v3.7h7.8v-3.7c1.8-0.4,3.4-1.1,5-2.1l2.6,2.6l5.5-5.5
					l-2.6-2.6c1-1.6,1.7-3.2,2.1-5H36.8z"/>
			</defs>
			<clipPath id="SVGID_2_">
				<use xlink:href="#SVGID_1_"  overflow="visible"/>
			</clipPath>
			<g clip-path="url(#SVGID_2_)">
				<defs>
					<rect id="SVGID_3_" x="-1207.3" y="-1260.6" width="2019.9" height="1436.4"/>
				</defs>
				<clipPath id="SVGID_4_">
					<use xlink:href="#SVGID_3_"  overflow="visible"/>
				</clipPath>
			</g>
		</g>
		<g>
			<defs>
				<path id="SVGID_5_" d="M16.6-481.1c-1.4,0-2.6-1.2-2.6-2.6c0-1.4,1.2-2.6,2.6-2.6s2.6,1.2,2.6,2.6
					C19.2-482.2,18-481.1,16.6-481.1z M16.6-487.6c-2.2,0-3.9,1.8-3.9,3.9c0,2.2,1.8,3.9,3.9,3.9c2.2,0,3.9-1.8,3.9-3.9
					C20.5-485.8,18.7-487.6,16.6-487.6z"/>
			</defs>
			<clipPath id="SVGID_6_">
				<use xlink:href="#SVGID_5_"  overflow="visible"/>
			</clipPath>
			<g clip-path="url(#SVGID_6_)">
				<defs>
					<rect id="SVGID_7_" x="-1207.3" y="-1260.6" width="2019.9" height="1436.4"/>
				</defs>
				<clipPath id="SVGID_8_">
					<use xlink:href="#SVGID_7_"  overflow="visible"/>
				</clipPath>
			</g>
		</g>
	</g>
	<path fill="none" stroke="#23DC76" stroke-width="3" stroke-linecap="round" stroke-linejoin="round" stroke-miterlimit="10" d="
		M58.3,74.4c-3.7-8.1,2.2-8.5,8.3-8.1c6.1,0.4,22.3-5.5,14.2-22.9c-8.5-18.2-35.3-17-45.4-4.1c-10.1,12.8-7.7,34,12.8,41.8
		C62.6,86.6,58.3,74.4,58.3,74.4z"/>
	<circle fill="#23DC76" cx="48.1" cy="39.1" r="3.4"/>
	<circle fill="#23DC76" cx="63.5" cy="39.3" r="3.4"/>
	<circle fill="#23DC76" cx="71.8" cy="51.6" r="3.4"/>
	<circle fill="#23DC76" cx="40.4" cy="51.2" r="3.4"/>
</g>
</svg>
