<?xml version="1.0" encoding="utf-8"?>
<!-- Generator: Adobe Illustrator 16.0.0, SVG Export Plug-In . SVG Version: 6.00 Build 0)  -->
<!DOCTYPE svg PUBLIC "-//W3C//DTD SVG 1.1//EN" "http://www.w3.org/Graphics/SVG/1.1/DTD/svg11.dtd">
<svg version="1.1" xmlns="http://www.w3.org/2000/svg" xmlns:xlink="http://www.w3.org/1999/xlink" x="0px" y="0px" width="40px"
	 height="40px" viewBox="0 0 40 40" enable-background="new 0 0 40 40" xml:space="preserve">
<g id="Layer_2">
</g>
<g id="Layer_1">
	<g>
		<g>
			<defs>
				<path id="SVGID_1_" d="M137-233.8c-0.4,2-1.2,3.8-2.3,5.5l-0.3,0.4l2.5,2.5l-3.7,3.7l-2.5-2.5l-0.4,0.3
					c-1.7,1.1-3.5,1.9-5.5,2.3l-0.5,0.1v3.5H119v-3.5l-0.5-0.1c-2-0.4-3.8-1.2-5.5-2.3l-0.4-0.3l-2.5,2.5l-3.7-3.7l2.5-2.5l-0.3-0.4
					c-1.1-1.7-1.9-3.5-2.3-5.5l-0.1-0.5h-3.5v-5.2h3.5l0.1-0.5c0.4-2,1.2-3.8,2.3-5.5l0.3-0.4l-2.5-2.5l3.7-3.7l2.5,2.5l0.4-0.3
					c1.7-1.1,3.5-1.9,5.5-2.3l0.5-0.1v-3.5h5.2v3.5l0.5,0.1c2,0.4,3.8,1.2,5.5,2.3l0.4,0.3l2.5-2.5l3.7,3.7l-2.5,2.5l0.3,0.4
					c1.1,1.7,1.9,3.5,2.3,5.5l0.1,0.5h3.5v5.2h-3.5L137-233.8z M141.9-233v-7.8h-3.7c-0.4-1.8-1.1-3.4-2.1-5l2.6-2.6l-5.5-5.5
					l-2.6,2.6c-1.6-1-3.2-1.7-5-2.1v-3.7h-7.8v3.7c-1.8,0.4-3.4,1.1-5,2.1l-2.6-2.6l-5.5,5.5l2.6,2.6c-1,1.6-1.7,3.2-2.1,5h-3.7v7.8
					h3.7c0.4,1.8,1.1,3.4,2.1,5l-2.6,2.6l5.5,5.5l2.6-2.6c1.6,1,3.2,1.7,5,2.1v3.7h7.8v-3.7c1.8-0.4,3.4-1.1,5-2.1l2.6,2.6l5.5-5.5
					l-2.6-2.6c1-1.6,1.7-3.2,2.1-5H141.9z"/>
			</defs>
			<clipPath id="SVGID_2_">
				<use xlink:href="#SVGID_1_"  overflow="visible"/>
			</clipPath>
			<g clip-path="url(#SVGID_2_)">
				<defs>
					<rect id="SVGID_3_" x="-1102.3" y="-1013.8" width="2019.9" height="1436.4"/>
				</defs>
				<clipPath id="SVGID_4_">
					<use xlink:href="#SVGID_3_"  overflow="visible"/>
				</clipPath>
			</g>
		</g>
		<g>
			<defs>
				<path id="SVGID_5_" d="M121.6-234.3c-1.4,0-2.6-1.2-2.6-2.6c0-1.4,1.2-2.6,2.6-2.6s2.6,1.2,2.6,2.6
					C124.2-235.5,123.1-234.3,121.6-234.3z M121.6-240.8c-2.2,0-3.9,1.8-3.9,3.9c0,2.2,1.8,3.9,3.9,3.9c2.2,0,3.9-1.8,3.9-3.9
					C125.5-239.1,123.8-240.8,121.6-240.8z"/>
			</defs>
			<clipPath id="SVGID_6_">
				<use xlink:href="#SVGID_5_"  overflow="visible"/>
			</clipPath>
			<g clip-path="url(#SVGID_6_)">
				<defs>
					<rect id="SVGID_7_" x="-1102.3" y="-1013.8" width="2019.9" height="1436.4"/>
				</defs>
				<clipPath id="SVGID_8_">
					<use xlink:href="#SVGID_7_"  overflow="visible"/>
				</clipPath>
			</g>
		</g>
	</g>
	<g>
		<path fill="#EAEAEA" d="M29.6,19.4c-0.2-1.6-0.8-3.1-1.7-4.4c-1.5-2.1-3.6-3.4-6.1-3.8c-0.5-0.1-1-0.1-1.5-0.2c0,0-0.1,0-0.1,0
			c-0.5,0.1-1,0.1-1.4,0.2c-4.9,0.8-8.5,5.4-7.9,10.4c0.3,2.4,1.3,4.4,3,6c2.1,1.9,4.6,2.7,7.4,2.5c2.2-0.2,4-1.1,5.6-2.6
			C29,25.2,29.9,22.5,29.6,19.4z M27.6,24.3c-0.2-0.4-0.5-1-0.7-1.5c-0.2-0.7-0.7,0-0.7,0.4c0,0.5-0.4,0.8-1,0.1
			c-0.6-0.7-0.7-0.6-0.9-0.6c-0.2,0-0.6,0.5-0.5,2.7c0.1,1.6,0.7,1.8,1.1,1.9c-0.8,0.5-1.6,0.9-2.6,1.2c-3.7,0.9-7.5-0.8-9.3-4.2
			c-1.7-3.2-0.8-6.8,0.8-8.7c0,0.4,0.1,0.7,0.1,1c0.1,0.9,0,1.7-0.2,2.6c0,0.2,0,0.4,0,0.6c0,0.1,0.2,0.2,0.3,0.2
			c0.1,0,0.2-0.1,0.3-0.2c0.1-0.2,0.1-0.4,0.1-0.5c0-0.1,0-0.3,0-0.5c0.1,0.1,0.2,0.2,0.3,0.3c0.2,0.2,0.4,0.4,0.6,0.6
			c0.1,0.1,0.2,0.2,0.2,0.4c0,0.3,0.1,0.4,0.2,0.6c0.2,0.2,0.2,0.5,0.3,0.8c0,0.1,0,0.2,0.1,0.3c0.1,0.2,0.3,0.4,0.5,0.4
			c0.3,0,0.4,0.1,0.4,0.4c-0.1,0-0.1,0-0.2,0c-0.3,0-0.5,0.2-0.5,0.5c0,0.7,0.3,1.3,0.8,1.8c0.1,0.1,0.3,0.3,0.4,0.4
			c0.3,0.3,0.4,0.7,0.3,1.1c-0.1,0.2-0.2,0.4-0.2,0.6c0,0.2,0,0.4,0,0.7c0.1,0.2,0,0.7,0.3,0.7c0.4-0.1,0.6,0,0.7-0.4
			c0-0.1,0-0.1,0-0.2c-0.1-0.4,0.4-1.6,0.7-1.8c0.3-0.2,0.6-0.4,0.8-0.6c0.4-0.3,0.5-0.7,0.4-1.2c-0.1-0.4,0-0.8,0.3-1.1
			c0.3-0.3,0.5-0.6,0.5-1.1c0-0.4-0.3-0.8-0.7-0.7c-0.2,0-0.4,0.1-0.6,0.2c-0.3,0.1-0.5,0.2-0.8,0.3c-0.4,0.1-0.6-0.2-0.8-0.5
			c-0.1-0.2-0.2-0.3-0.4-0.1c-0.2,0.1-0.4,0.3-0.6,0.4c-0.2,0.1-0.3,0.1-0.5-0.1c-0.1-0.1-0.2-0.2-0.4-0.3c-0.1-0.1-0.2-0.1-0.3-0.1
			c-0.1-0.1-0.2-0.2-0.2-0.3c0-0.1,0.2-0.3,0.3-0.3c0.2-0.1,0.5-0.1,0.7-0.1c0.1,0,0.2-0.1,0.4-0.1c0.2-0.1,0.1-0.2,0-0.3
			c-0.1,0-0.1-0.1-0.2-0.1c-0.3-0.1-0.7-0.3-1-0.4c-0.1,0-0.2-0.1-0.2-0.1c-0.2-0.1-0.2-0.3,0-0.5c0.8-0.7,1.7-0.9,2.5,0
			c0.3,0.3,0.4,0.6,0.7,0.9c0.2,0.2,0.4,0.5,0.6,0.6c0.1,0.1,0.3,0.1,0.4,0c0.2-0.1,0.2-0.3,0.1-0.5c-0.1-0.1-0.2-0.3-0.3-0.4
			c-0.5-0.6-0.4-1.7,0.5-2.2c0.3-0.2,0.6-0.3,0.7-0.8c-0.2,0-0.3,0.1-0.4,0.1c-0.7,0.2-0.2-0.3,0.1-0.4c0.2-0.1-0.2-0.2-0.2-0.2
			c0,0,0.2-0.1,0.5-0.2c0.2-0.1,0.4-0.2,0.5-0.3c0.1-0.1,0.1-0.2,0.2-0.3c0,0,0,0,0-0.1c-0.2,0-0.4,0.1-0.5,0.1
			c-0.3,0-0.4,0-0.4-0.3c0-0.2-0.2-0.3-0.4-0.2c-0.1,0.1-0.3,0.2-0.4,0.3c-0.3,0.2-0.5,0.1-0.6-0.2c-0.1-0.2-0.2-0.2-0.4-0.1
			c-0.1,0.1-0.2,0.1-0.3,0.2c-0.2,0.1-0.3,0.2-0.5,0.2c-0.2,0.1-0.4,0.1-0.5-0.1c-0.1-0.2,0-0.4,0.1-0.5c0.2-0.1,0.4-0.3,0.6-0.4
			c0.3-0.2,0.6-0.3,0.9-0.5c0.2-0.1,0.3-0.4,0.2-0.6c-0.1-0.2-0.2-0.3-0.4-0.2c-0.2,0.1-0.3,0.2-0.5,0.3c-0.1,0-0.3,0-0.4,0
			c0,0-0.1-0.1-0.1-0.2c0,0,0.1-0.1,0.2-0.1c0.4-0.1,0.8-0.1,1.2-0.2c0.1,0,0.1,0,0.2,0.1c0.3,0.3,0.7,0.5,1.1,0.6
			c0.3,0.1,0.4,0.1,0.4-0.3c0.4-0.1,0.9-0.3,1.3,0c0.2,0.2,0.5,0.3,0.7,0.6c0.1,0.1,0,0.2,0,0.3c0,0.1-0.1,0.3-0.1,0.4
			c-0.1,0.3,0.1,0.5,0.4,0.5c0.1,0,0.2,0,0.3,0c0.2,0,0.3,0.1,0.3,0.3c0,0.4,0,0.4,0.4,0.3c0.1,0,0.2,0,0.3,0.1
			c0.1,0,0.1,0.1,0.2,0.1c0.3,0.3,0.6,0.2,0.7-0.3c0,0,0-0.1,0-0.1c0-0.2,0.1-0.2,0.3-0.1c0.3,0.3,0.5,0.6,0.8,0.9
			c-0.3,0.3-0.3,0.6-0.2,0.9c0.1,0.4,0,0.7-0.2,1c-0.1,0.3-0.3,0.6-0.4,0.9c-0.1,0.5,0,0.7,0.5,0.8c0.5,0.1,0.5,0.2,0.5,0.6
			c0,0.6,0.3,1,0.9,1.3c0.1,0.1,0.2,0.1,0.4,0.2C28.3,22.4,28,23.4,27.6,24.3z"/>
	</g>
</g>
</svg>
