<?xml version="1.0" encoding="utf-8"?>
<!-- Generator: Adobe Illustrator 16.0.0, SVG Export Plug-In . SVG Version: 6.00 Build 0)  -->
<!DOCTYPE svg PUBLIC "-//W3C//DTD SVG 1.1//EN" "http://www.w3.org/Graphics/SVG/1.1/DTD/svg11.dtd">
<svg version="1.1" xmlns="http://www.w3.org/2000/svg" xmlns:xlink="http://www.w3.org/1999/xlink" x="0px" y="0px" width="40px"
	 height="40px" viewBox="0 0 40 40" enable-background="new 0 0 40 40" xml:space="preserve">
<g id="Layer_2">
</g>
<g id="Layer_1">
	<g>
		<g>
			<defs>
				<path id="SVGID_1_" d="M278.7-233.8c-0.4,2-1.2,3.8-2.3,5.5l-0.3,0.4l2.5,2.5l-3.7,3.7l-2.5-2.5l-0.4,0.3
					c-1.7,1.1-3.5,1.9-5.5,2.3l-0.5,0.1v3.5h-5.2v-3.5l-0.5-0.1c-2-0.4-3.8-1.2-5.5-2.3l-0.4-0.3l-2.5,2.5l-3.7-3.7l2.5-2.5
					l-0.3-0.4c-1.1-1.7-1.9-3.5-2.3-5.5l-0.1-0.5h-3.5v-5.2h3.5l0.1-0.5c0.4-2,1.2-3.8,2.3-5.5l0.3-0.4l-2.5-2.5l3.7-3.7l2.5,2.5
					l0.4-0.3c1.7-1.1,3.5-1.9,5.5-2.3l0.5-0.1v-3.5h5.2v3.5l0.5,0.1c2,0.4,3.8,1.2,5.5,2.3l0.4,0.3l2.5-2.5l3.7,3.7l-2.5,2.5
					l0.3,0.4c1.1,1.7,1.9,3.5,2.3,5.5l0.1,0.5h3.5v5.2h-3.5L278.7-233.8z M283.6-233v-7.8h-3.7c-0.4-1.8-1.1-3.4-2.1-5l2.6-2.6
					l-5.5-5.5l-2.6,2.6c-1.6-1-3.2-1.7-5-2.1v-3.7h-7.8v3.7c-1.8,0.4-3.4,1.1-5,2.1l-2.6-2.6l-5.5,5.5l2.6,2.6c-1,1.6-1.7,3.2-2.1,5
					h-3.7v7.8h3.7c0.4,1.8,1.1,3.4,2.1,5l-2.6,2.6l5.5,5.5l2.6-2.6c1.6,1,3.2,1.7,5,2.1v3.7h7.8v-3.7c1.8-0.4,3.4-1.1,5-2.1l2.6,2.6
					l5.5-5.5l-2.6-2.6c1-1.6,1.7-3.2,2.1-5H283.6z"/>
			</defs>
			<clipPath id="SVGID_2_">
				<use xlink:href="#SVGID_1_"  overflow="visible"/>
			</clipPath>
			<g clip-path="url(#SVGID_2_)">
				<defs>
					<rect id="SVGID_3_" x="-960.5" y="-1013.8" width="2019.9" height="1436.4"/>
				</defs>
				<clipPath id="SVGID_4_">
					<use xlink:href="#SVGID_3_"  overflow="visible"/>
				</clipPath>
			</g>
		</g>
		<g>
			<defs>
				<path id="SVGID_5_" d="M263.4-234.3c-1.4,0-2.6-1.2-2.6-2.6c0-1.4,1.2-2.6,2.6-2.6s2.6,1.2,2.6,2.6
					C266-235.5,264.8-234.3,263.4-234.3z M263.4-240.8c-2.2,0-3.9,1.8-3.9,3.9c0,2.2,1.8,3.9,3.9,3.9c2.2,0,3.9-1.8,3.9-3.9
					C267.3-239.1,265.5-240.8,263.4-240.8z"/>
			</defs>
			<clipPath id="SVGID_6_">
				<use xlink:href="#SVGID_5_"  overflow="visible"/>
			</clipPath>
			<g clip-path="url(#SVGID_6_)">
				<defs>
					<rect id="SVGID_7_" x="-960.5" y="-1013.8" width="2019.9" height="1436.4"/>
				</defs>
				<clipPath id="SVGID_8_">
					<use xlink:href="#SVGID_7_"  overflow="visible"/>
				</clipPath>
			</g>
		</g>
	</g>
	<path fill="#EAEAEA" d="M33.7,14.8c-0.1-0.2-0.4-0.2-0.6-0.1c-0.3,0.1-0.5,0.2-0.8,0.3c0.4-0.5,0.6-1,0.8-1.6
		c0.1-0.2,0-0.4-0.2-0.5c-0.2-0.1-0.4-0.1-0.6,0c-0.8,0.5-1.7,0.8-2.6,1c-1-0.9-2.2-1.4-3.6-1.4c-2.9,0-5.2,2.3-5.2,5.2
		c0,0.2,0,0.4,0,0.5c-3.4-0.3-6.6-2-8.7-4.7c-0.1-0.1-0.3-0.2-0.4-0.2c-0.2,0-0.3,0.1-0.4,0.2c-0.5,0.8-0.7,1.7-0.7,2.6
		c0,1.1,0.3,2.2,1,3c-0.1,0-0.2-0.1-0.3-0.1c-0.2-0.1-0.3-0.1-0.5,0c-0.1,0.1-0.2,0.3-0.2,0.5c0,1.7,0.8,3.3,2.2,4.2
		c-0.1,0-0.3,0.1-0.4,0.2c-0.1,0.1-0.1,0.3-0.1,0.5c0.5,1.7,1.9,2.9,3.5,3.4c-1.4,0.8-2.9,1.2-4.5,1.2c-0.4,0-0.8,0-1.1-0.1
		c-0.2,0-0.4,0.1-0.5,0.3c-0.1,0.2,0,0.4,0.2,0.6c2.2,1.4,4.8,2.2,7.5,2.2c8.7,0,13.8-7,13.8-13.8c0-0.1,0-0.2,0-0.4
		c0.9-0.7,1.6-1.5,2.3-2.4C33.9,15.3,33.9,15,33.7,14.8z"/>
</g>
</svg>
